<svg width="24" height="24" viewBox="0 0 24 24" fill="none" xmlns="http://www.w3.org/2000/svg">
<path d="M0 0 C1.51133702 -0.00461649 3.02266953 -0.0109744 4.53399277 -0.01890898 C8.66100303 -0.03552294 12.78764071 -0.02739237 16.91465187 -0.0149641 C21.37553995 -0.00588324 25.83636567 -0.01989835 30.29724121 -0.03088379 C39.02581817 -0.04864127 47.7542573 -0.04484139 56.48283958 -0.03323323 C63.57869978 -0.02418826 70.67452143 -0.0229795 77.77038574 -0.02732849 C78.78150162 -0.02794142 79.79261749 -0.02855436 80.83437324 -0.02918586 C82.88863533 -0.0304648 84.94289741 -0.03176166 86.99715948 -0.03307623 C106.24592641 -0.04447391 125.49461707 -0.03138106 144.74337149 -0.00987476 C161.24854887 0.00799547 177.75361371 0.00489114 194.25878906 -0.0135498 C213.44013954 -0.03497085 232.6214232 -0.04337535 251.80278397 -0.03110075 C253.84935759 -0.0298266 255.89593123 -0.02856911 257.94250488 -0.02732849 C259.45281237 -0.02640284 259.45281237 -0.02640284 260.99363112 -0.02545848 C268.07841204 -0.02200929 275.16315047 -0.02782464 282.2479248 -0.0372467 C290.88557682 -0.04848177 299.52308349 -0.04539493 308.16071892 -0.02412373 C312.56516898 -0.01363361 316.96937697 -0.00945659 321.37382507 -0.02272034 C325.41051993 -0.03469249 329.44674971 -0.0280029 333.48340273 -0.00681013 C334.93884083 -0.00236439 336.39431872 -0.00456444 337.84973097 -0.01431328 C348.12719243 -0.07784166 357.80653549 0.59493122 365.79394531 7.69543457 C371.7893143 14.51228441 373.62473958 21.25621897 373.29785156 30.29309082 C372.17462578 38.47375295 368.12877851 43.92468737 361.91894531 49.13293457 C357.48420113 52.08943069 353.71225849 52.75860791 348.42265606 52.76520348 C347.11484446 52.77165237 345.80703287 52.77810126 344.45959061 52.78474557 C343.00989982 52.78180335 341.56020941 52.77866792 340.11051941 52.77536011 C338.56922807 52.77909647 337.02793863 52.78369794 335.4866522 52.78909075 C331.24918354 52.80133792 327.01179374 52.80105827 322.77431142 52.798702 C318.20500237 52.79829427 313.63571875 52.80932882 309.06642151 52.81881714 C300.11347657 52.83543752 291.16055796 52.84092715 282.20759889 52.84204189 C274.93089435 52.84299188 267.65419851 52.84709967 260.37749672 52.85344315 C239.75132273 52.87105837 219.12516956 52.88028157 198.498988 52.8787822 C197.38678045 52.87870229 196.27457291 52.87862237 195.12866211 52.87854004 C193.45831621 52.8784174 193.45831621 52.8784174 191.75422595 52.87829228 C173.70537062 52.87747929 155.65659873 52.89661937 137.60776754 52.92481677 C119.07988135 52.95353443 100.55203585 52.96735768 82.02412683 52.96562922 C71.62029359 52.96496493 61.21654781 52.97047419 50.8127346 52.99198532 C41.9549137 53.01018239 33.09721991 53.01455658 24.23938843 53.00096647 C19.71990391 52.99442938 15.20066336 52.99434631 10.68120193 53.01167297 C6.54267077 53.02737607 2.40457759 53.02456852 -1.73394271 53.00710471 C-3.22988995 53.0040287 -4.72586965 53.00768986 -6.22177861 53.01882486 C-15.46375091 53.08305433 -22.11481622 52.82463927 -29.35058594 46.61340332 C-35.50125112 39.26552837 -37.75346476 33.39716706 -37.48730469 23.72668457 C-36.72501661 16.58889621 -33.68337729 10.89776227 -28.31071854 6.12167311 C-19.93111558 -0.11804348 -10.01231117 -0.06706585 0 0 Z " fill="#000000" transform="translate(88.1435546875,75.4920654296875)"/>
<path d="M0 0 C1.3078116 -0.00644889 2.61562319 -0.01289778 3.96306545 -0.0195421 C5.41275624 -0.01659987 6.86244665 -0.01346444 8.31213665 -0.01015663 C9.85342799 -0.01389299 11.39471743 -0.01849446 12.93600386 -0.02388728 C17.17347252 -0.03613445 21.41086232 -0.03585479 25.64834464 -0.03349853 C30.21765369 -0.03309079 34.78693731 -0.04412534 39.35623455 -0.05361366 C48.30917949 -0.07023404 57.2620981 -0.07572368 66.21505717 -0.07683842 C73.49176171 -0.0777884 80.76845755 -0.08189619 88.04515934 -0.08823967 C108.67133333 -0.1058549 129.2974865 -0.1150781 149.92366806 -0.11357872 C151.59197938 -0.11345885 151.59197938 -0.11345885 153.29399395 -0.11333656 C154.96433985 -0.11321392 154.96433985 -0.11321392 156.66843011 -0.1130888 C174.71728544 -0.11227582 192.76605733 -0.13141589 210.81488851 -0.1596133 C229.34277471 -0.18833095 247.87062021 -0.20215421 266.39852923 -0.20042574 C276.80236247 -0.19976146 287.20610824 -0.20527071 297.60992146 -0.22678185 C306.46774236 -0.24497892 315.32543614 -0.2493531 324.18326763 -0.235763 C328.70275215 -0.22922591 333.2219927 -0.22914283 337.74145412 -0.2464695 C341.87998529 -0.26217259 346.01807847 -0.25936504 350.15659877 -0.24190123 C351.65254601 -0.23882523 353.14852571 -0.24248638 354.64443467 -0.25362138 C363.88640697 -0.31785085 370.53747228 -0.0594358 377.773242 6.15180016 C383.92390718 13.49967511 386.17612082 19.36803642 385.90996075 29.03851891 C385.11324616 36.49866461 381.88771835 41.77061733 376.429492 46.81976891 C370.4609586 51.4244236 363.65184575 52.38034717 356.29418182 52.38869667 C355.02243758 52.39253782 353.75069334 52.39637896 352.44041139 52.4003365 C351.03140146 52.39955631 349.62239158 52.39867753 348.21338177 52.3977108 C346.71476531 52.40029515 345.21614954 52.40330851 343.71753472 52.4067142 C339.59796127 52.41477922 335.47840526 52.4165735 331.35882485 52.41731167 C326.91627576 52.41916309 322.47373569 52.42671088 318.03119183 52.43344688 C308.31625151 52.44702719 298.60131531 52.45305446 288.88636708 52.45745754 C282.81989692 52.46022047 276.75342835 52.46445792 270.68695927 52.46896172 C253.88949242 52.48115399 237.09202684 52.49145339 220.29455566 52.49483681 C219.21953639 52.49505637 218.14451712 52.49527594 217.03692151 52.49550216 C215.95933554 52.49572044 214.88174956 52.49593871 213.77150947 52.49616361 C211.58792357 52.49660707 209.40433766 52.49705364 207.22075176 52.49750328 C205.59605201 52.49783543 205.59605201 52.49783543 203.93853005 52.49817428 C186.38896506 52.50212207 168.8394416 52.51957569 151.28989265 52.5428628 C133.27050668 52.56658028 115.25114154 52.57903884 97.2317397 52.58020473 C87.1151371 52.58112126 76.99858861 52.58686821 66.88200092 52.60502434 C58.26726557 52.62043066 49.65260104 52.62554263 41.03785453 52.61728624 C36.64372435 52.61338163 32.2497368 52.61430009 27.8556242 52.62834358 C23.82931366 52.64109373 19.80325276 52.63987527 15.77694251 52.62775287 C14.3240276 52.6257978 12.87109493 52.62886552 11.41820494 52.63759723 C0.20396743 52.70070121 -9.3553633 52.16083871 -17.742383 44.16351891 C-23.5016461 37.67270969 -24.86426153 31.18172656 -24.76972675 22.68305016 C-23.95598544 14.38478115 -19.73616982 8.86571713 -13.49628925 3.63226891 C-9.06154507 0.67577278 -5.28960243 0.00659557 0 0 Z " fill="#000000" transform="translate(75.43378925323486,383.74273109436035)"/>
<path d="M0 0 C1.36602521 -0.00543019 2.73204456 -0.01255786 4.09805298 -0.02124023 C7.78410517 -0.03937039 11.46970614 -0.03244927 15.15576553 -0.01972389 C19.02727658 -0.00954234 22.89875098 -0.0190038 26.77026367 -0.02526855 C33.26976401 -0.03253005 39.76908207 -0.0229968 46.26855469 -0.00390625 C53.76509935 0.01785974 61.26120875 0.0108073 68.75774288 -0.01121187 C75.21325097 -0.02940879 81.66862862 -0.03190332 88.12415409 -0.0214572 C91.97138152 -0.01524574 95.81840487 -0.01432142 99.6656189 -0.02760315 C103.28395163 -0.0392239 106.9017274 -0.03102394 110.52000046 -0.00802612 C112.46837362 -0.000281 114.41679432 -0.01204164 116.36514282 -0.02453613 C125.24247295 0.06051104 131.13831167 1.81639609 138.51953125 6.64257812 C144.18095073 12.56133486 146.57287124 18.30631292 146.89453125 26.51757812 C146.55991207 34.83783886 144.07164088 41.21912552 137.95703125 46.95507812 C130.56639047 53.19151304 121.81415405 52.95869386 112.66845703 52.9375 C111.30420237 52.94485072 109.93995391 52.95343986 108.57571411 52.96316528 C104.88962792 52.98528463 101.20376591 52.98831682 97.51762247 52.98641777 C94.43136601 52.98629762 91.34515629 52.99487966 88.25891292 53.00319529 C80.97286952 53.02239487 73.68694067 53.02532578 66.40087891 53.01855469 C58.90489425 53.01191625 51.40940195 53.03477786 43.91351712 53.07186842 C37.45887183 53.10263825 31.00438433 53.1139176 24.54966724 53.1100316 C20.70287335 53.10797161 16.8564628 53.11332637 13.00973892 53.13792419 C9.38971641 53.16031011 5.7704904 53.15821696 2.1504631 53.13799667 C0.20342959 53.1330024 -1.7436196 53.15251946 -3.69055176 53.17300415 C-12.40091421 53.09027626 -19.29096934 51.5531779 -25.86944389 45.57320404 C-31.22510064 40.0102889 -33.78330956 34.33576192 -34.16796875 26.64257812 C-33.86388821 18.39439355 -30.76826879 11.89996905 -25 6.08789062 C-16.951876 0.51930913 -9.6276709 -0.06174094 0 0 Z " fill="#000000" transform="translate(314.73046875,229.482421875)"/>
<path d="M0 0 C1.36425466 -0.00735072 2.72850312 -0.01593986 4.09274292 -0.02566528 C7.77882911 -0.04778463 11.46469112 -0.05081682 15.15083456 -0.04891777 C18.23709102 -0.04879762 21.32330074 -0.05737966 24.40954411 -0.06569529 C31.69558751 -0.08489487 38.98151636 -0.08782578 46.26757812 -0.08105469 C53.76356278 -0.07441625 61.25905508 -0.09727786 68.75493991 -0.13436842 C75.2095852 -0.16513825 81.6640727 -0.1764176 88.11878979 -0.1725316 C91.96558368 -0.17047161 95.81199423 -0.17582637 99.65871811 -0.20042419 C103.27874062 -0.22281011 106.89796664 -0.22071696 110.51799393 -0.20049667 C112.46502744 -0.1955024 114.41207663 -0.21501946 116.35900879 -0.23550415 C125.06937124 -0.15277626 131.95942637 1.3843221 138.53790092 7.36429596 C143.89355767 12.9272111 146.45176659 18.60173808 146.83642578 26.29492188 C146.53234524 34.54310645 143.43672582 41.03753095 137.66845703 46.84960938 C129.62033303 52.41819087 122.29612793 52.99924094 112.66845703 52.9375 C111.30243182 52.94293019 109.93641247 52.95005786 108.57040405 52.95874023 C104.88435186 52.97687039 101.19875089 52.96994927 97.5126915 52.95722389 C93.64118045 52.94704234 89.76970605 52.9565038 85.89819336 52.96276855 C79.39869302 52.97003005 72.89937496 52.9604968 66.39990234 52.94140625 C58.90335768 52.91964026 51.40724828 52.9266927 43.91071415 52.94871187 C37.45520606 52.96690879 30.99982841 52.96940332 24.54430294 52.9589572 C20.69707551 52.95274574 16.85005216 52.95182142 13.00283813 52.96510315 C9.3845054 52.9767239 5.76672963 52.96852394 2.14845657 52.94552612 C0.20008341 52.937781 -1.74833729 52.94954164 -3.69668579 52.96203613 C-12.57401592 52.87698896 -18.46985464 51.12110391 -25.85107422 46.29492188 C-31.5124937 40.37616514 -33.90441421 34.63118708 -34.22607422 26.41992188 C-33.89145504 18.09966114 -31.40318384 11.71837448 -25.28857422 5.98242188 C-17.89793343 -0.25401304 -9.14569702 -0.02119386 0 0 Z " fill="#000000" transform="translate(84.60107421875,229.580078125)"/>
</svg>
