<svg width="24" height="24" viewBox="0 0 24 24" fill="none" xmlns="http://www.w3.org/2000/svg">
<path d="M0 0 C2.10902286 1.24018236 4.21841061 2.47974438 6.328125 3.71875 C7.40642578 4.35296875 8.48472656 4.9871875 9.59570312 5.640625 C14.96494775 8.78734133 20.35710835 11.89403961 25.75 15 C26.82765625 15.62116699 27.9053125 16.24233398 29.015625 16.88232422 C32.30177082 18.77625916 35.58832124 20.66949007 38.875 22.5625 C52.55054314 30.43912589 66.21460958 38.33370092 79.84082031 46.29541016 C91.49159185 53.09837623 103.18403744 59.82892186 114.875 66.5625 C128.53859015 74.43224139 142.1977243 82.30834918 155.8034668 90.27783203 C161.13040057 93.3942095 166.47346419 96.47942481 171.83984375 99.52734375 C173.01506283 100.19710971 174.19019361 100.86703064 175.36523438 101.53710938 C177.59367581 102.80599529 179.82524852 104.06940461 182.06054688 105.32617188 C197.05821447 113.88137961 208.02615537 123.47061951 214.125 139.9375 C216.97875963 153.73067156 216.14383924 167.78376379 208.375 179.90234375 C201.51190175 189.19612263 192.9281339 195.52821798 182.9375 201.125 C181.89899902 201.71869385 180.86049805 202.3123877 179.79052734 202.92407227 C177.59690976 204.17777904 175.40090016 205.42730885 173.20263672 206.67285156 C168.86337885 209.13696425 164.54434921 211.63531459 160.22509766 214.13427734 C153.04346092 218.28886235 145.85275656 222.42774522 138.65765381 226.55895996 C135.79187044 228.20470095 132.9271201 229.85223522 130.0625 231.5 C128.97404785 232.12583984 127.8855957 232.75167969 126.76416016 233.39648438 C120.08934946 237.24721764 113.49061512 241.18620282 107 245.33984375 C104.875 246.5625 104.875 246.5625 102.875 246.5625 C102.95660291 250.87573239 103.06938328 255.18762524 103.1875 259.5 C103.21005859 260.71236328 103.23261719 261.92472656 103.25585938 263.17382812 C103.46485379 270.18464094 104.19572761 276.07362317 106.875 282.5625 C107.205 283.5525 107.535 284.5425 107.875 285.5625 C109.9617944 286.83575863 109.9617944 286.83575863 112.875 287.5625 C113.78572266 287.85447266 113.78572266 287.85447266 114.71484375 288.15234375 C122.78844563 289.97153523 129.14585471 285.44879666 135.875 281.5625 C136.71981934 281.07797363 137.56463867 280.59344727 138.43505859 280.09423828 C143.43968236 277.21487782 148.42404735 274.3023419 153.3984375 271.37109375 C159.82673584 267.58351004 166.28424531 263.84819464 172.75 260.125 C173.82781738 259.50375244 174.90563477 258.88250488 176.01611328 258.24243164 C180.39890744 255.71640539 184.78248916 253.19174734 189.16601562 250.66699219 C192.44431059 248.77851508 195.72225118 246.88942484 199 245 C200.59448975 244.08118042 200.59448975 244.08118042 202.22119141 243.14379883 C207.70104974 239.98272699 213.17274815 236.80843585 218.6328125 233.61328125 C219.72319824 232.97527588 220.81358398 232.33727051 221.93701172 231.67993164 C224.00480035 230.46868067 226.07159432 229.25572945 228.13720703 228.04077148 C243.02800314 219.31466685 243.02800314 219.31466685 251.875 220.5625 C255.78965198 221.87728824 258.43164796 224.10777996 261.3125 227.0625 C263.62080705 232.2331078 263.63288897 236.98933665 262.875 242.5625 C259.73331615 249.07858503 254.26361702 252.4903351 248.10546875 255.9609375 C246.98172852 256.59789551 245.85798828 257.23485352 244.70019531 257.89111328 C244.10775024 258.22435608 243.51530518 258.55759888 242.90490723 258.90093994 C239.74264512 260.68006594 236.58879509 262.47401715 233.43359375 264.265625 C232.79366486 264.62846588 232.15373596 264.99130676 231.49441528 265.36514282 C225.51128717 268.7604019 219.56286871 272.21371558 213.625 275.6875 C212.65054932 276.25718506 211.67609863 276.82687012 210.67211914 277.41381836 C208.71509373 278.55851196 206.75830491 279.70361013 204.80175781 280.84912109 C199.8699194 283.73631178 194.93544097 286.61897269 190 289.5 C189.02353516 290.07000732 188.04707031 290.64001465 187.04101562 291.22729492 C178.36159417 296.28863511 169.66088925 301.31270857 160.95361328 306.32592773 C159.94282715 306.90802002 158.93204102 307.4901123 157.890625 308.08984375 C156.90263916 308.65799805 155.91465332 309.22615234 154.89672852 309.81152344 C152.79725884 311.02808613 150.7044324 312.2561567 148.61694336 313.49316406 C147.03345093 314.43047363 147.03345093 314.43047363 145.41796875 315.38671875 C143.99907349 316.23302856 143.99907349 316.23302856 142.55151367 317.09643555 C131.57620492 323.10817768 118.21478551 324.42327925 106.125 321.375 C91.77969302 316.83161832 81.96893323 308.90277963 74.875 295.5625 C70.14451417 286.3028256 70.09901529 276.74399516 69.875 266.5625 C55.49139664 274.75191556 41.12702751 282.96946754 26.84033203 291.32714844 C17.15341261 296.99195703 7.4380814 302.6066788 -2.29296875 308.1953125 C-5.71043746 310.16017933 -9.11322957 312.14286521 -12.48828125 314.1796875 C-25.29933662 321.87640816 -37.87101637 324.6562644 -52.65234375 321.90625 C-64.73918524 318.5719489 -75.6661071 311.85672429 -82.12646484 300.85742188 C-86.40529884 293.056667 -89.24114218 286.67146632 -89.27217102 277.70596313 C-89.27584771 277.01665848 -89.2795244 276.32735383 -89.2833125 275.61716115 C-89.29432311 273.30808032 -89.29818866 270.99904453 -89.30200195 268.68994141 C-89.30826844 267.0340816 -89.3149154 265.3782232 -89.32191467 263.72236633 C-89.34293014 258.28627497 -89.35331261 252.8501834 -89.36328125 247.4140625 C-89.36732932 245.54199585 -89.37144625 243.66992935 -89.37563133 241.79786301 C-89.39467506 233.00500943 -89.40890953 224.21216423 -89.4172433 215.419294 C-89.42702228 205.26946486 -89.45336244 195.11985341 -89.49374419 184.970101 C-89.52389109 177.12370512 -89.5387107 169.27737173 -89.54202431 161.43091905 C-89.54437583 156.74475781 -89.55334991 152.05882938 -89.57848549 147.37273026 C-89.60174723 142.96497868 -89.60600718 138.55761354 -89.59572411 134.14981651 C-89.59522822 132.53331276 -89.60156422 130.9167901 -89.61528015 129.30034447 C-89.63297831 127.09076804 -89.62590483 124.88258175 -89.61274719 122.67300415 C-89.61513555 121.43746607 -89.6175239 120.20192799 -89.61998463 118.92894936 C-88.86128287 113.76892844 -86.33709053 110.713986 -82.625 107.1875 C-77.45999991 104.78946425 -72.7247712 104.80868465 -67.125 105.5625 C-62.14654051 107.87392762 -59.82710468 110.85350984 -57.125 115.5625 C-56.62277794 118.74598503 -56.62277794 118.74598503 -56.61947632 122.22848511 C-56.61034114 123.19551005 -56.61034114 123.19551005 -56.60102141 124.18207085 C-56.58548432 126.32862287 -56.59818304 128.4740489 -56.61083984 130.62060547 C-56.60537612 132.16514789 -56.59813299 133.70968489 -56.58924866 135.25421143 C-56.57393122 138.57400613 -56.57110137 141.89349186 -56.57801437 145.21331406 C-56.58881691 150.46688625 -56.5713992 155.72013671 -56.55020142 160.97366333 C-56.51995512 169.28670036 -56.50824826 177.59964189 -56.50462496 185.91272938 C-56.49797799 200.79073795 -56.46888548 215.6686798 -56.4195286 230.54660714 C-56.40306827 235.76454005 -56.39760666 240.98233409 -56.40111899 246.20029044 C-56.40155739 249.45220637 -56.39397125 252.70407029 -56.38444328 255.95597076 C-56.38177056 257.45874191 -56.38249504 258.96152371 -56.38695335 260.46429062 C-56.87354975 273.2388609 -56.87354975 273.2388609 -51.75 284.4375 C-47.57782033 287.81497878 -44.98801134 288.97804957 -39.47729492 288.91772461 C-34.72971142 288.20078283 -30.78330783 285.57264222 -26.6875 283.1875 C-25.71522461 282.63876221 -24.74294922 282.09002441 -23.74121094 281.5246582 C-20.85759635 279.88977287 -17.98913434 278.23123214 -15.125 276.5625 C-14.38040527 276.1308252 -13.63581055 275.69915039 -12.86865234 275.25439453 C-9.49076693 273.29155832 -6.12669797 271.30662799 -2.76953125 269.30859375 C2.93436179 265.92163091 8.68798619 262.6212063 14.4375 259.3125 C22.93163443 254.42117324 31.41270847 249.50871466 39.875 244.5625 C49.28487238 239.06299205 58.71970599 233.60800784 68.1640625 228.16796875 C75.41451541 223.98900842 82.64983863 219.78502011 89.875 215.5625 C104.71979811 206.88857178 119.61979852 198.31060928 134.5234375 189.73828125 C140.979814 186.02310644 147.42911796 182.29584801 153.875 178.5625 C154.93493164 177.95003418 155.99486328 177.33756836 157.08691406 176.70654297 C160.14532096 174.93620858 163.19840555 173.15704574 166.25 171.375 C167.16555664 170.84632324 168.08111328 170.31764648 169.02441406 169.77294922 C176.10358551 165.83667119 176.10358551 165.83667119 180.80859375 159.484375 C181.91019117 154.73640471 182.2565978 151.00318517 180.11157227 146.5168457 C175.70274331 139.54889392 165.93823092 135.55284147 159 131.625 C157.2654983 130.63369794 155.53100115 129.64238781 153.79678345 128.65058899 C152.00672637 127.62772771 150.21539457 126.60712895 148.42382812 125.58691406 C142.85363113 122.41257838 137.30235355 119.205409 131.75 116 C130.67379395 115.37939697 129.59758789 114.75879395 128.48876953 114.11938477 C120.27989077 109.38282839 112.09209573 104.61081622 103.90917969 99.82958984 C92.25840815 93.02662377 80.56596256 86.29607814 68.875 79.5625 C55.19945686 71.68587411 41.53539042 63.79129908 27.90917969 55.82958984 C17.38110971 49.68217697 6.81820951 43.59560458 -3.74609375 37.51074219 C-7.30131286 35.46083984 -10.85404654 33.40668356 -14.40625 31.3515625 C-16.19332963 30.31826254 -17.98047134 29.28507004 -19.76763916 28.25192261 C-21.46255767 27.27165502 -23.15682345 26.29025912 -24.85107422 25.30883789 C-25.8773291 24.71578857 -26.90358398 24.12273926 -27.9609375 23.51171875 C-28.86376465 22.98924561 -29.7665918 22.46677246 -30.69677734 21.9284668 C-35.63836997 19.14863463 -39.32803147 17.68646558 -45.125 18.5625 C-50.00074405 20.35220764 -52.8231295 22.92633828 -55.125 27.5625 C-55.93321415 31.08925264 -56.50870312 34.61634328 -57.0859375 38.1875 C-58.63523077 43.21979093 -61.60648755 45.58390309 -65.9375 48.375 C-71.50118955 50.44774709 -76.00251213 50.31676057 -81.375 48 C-84.48592549 46.20570636 -86.89537499 44.32386609 -88.5 41 C-91.73823329 28.37089018 -88.37253979 16.79960243 -81.9375 5.875 C-74.93318381 -4.54243637 -64.93008555 -11.55240275 -52.75 -14.8125 C-32.33053226 -18.40070357 -17.03224955 -10.09808546 0 0 Z " fill="#000000" transform="translate(121.125,102.4375)"/>
<path d="M0 0 C1.72947896 1.02666281 3.45897274 2.05330165 5.18936157 3.07843018 C6.97530343 4.13902405 8.7571632 5.20623092 10.53857422 6.27441406 C16.00603635 9.54441562 21.53762952 12.70335397 27.0625 15.875 C29.2268473 17.12320421 31.39090903 18.37190373 33.5546875 19.62109375 C37.91315388 22.13569436 42.27262191 24.64854661 46.6328125 27.16015625 C58.11556897 33.77641117 69.58210901 40.41890011 81.02392578 47.10571289 C88.35562479 51.38744917 95.70532981 55.63720007 103.0625 59.875 C111.41048459 64.68351844 119.74493184 69.51405683 128.0625 74.375 C136.34027537 79.21176698 144.63233134 84.02292092 152.9375 88.8125 C154.5447998 89.74098755 154.5447998 89.74098755 156.18457031 90.68823242 C161.77520211 93.91511027 167.37551673 97.12332695 172.9921875 100.3046875 C213.35423806 123.22829176 213.35423806 123.22829176 220.0625 143.375 C223.55476367 157.54044989 221.95942355 170.3148084 215.0390625 183.14453125 C207.11564869 196.09445857 194.5313275 202.21678652 181.6875 209.5625 C179.40094737 210.87092898 177.11449045 212.17952522 174.828125 213.48828125 C173.12946289 214.46015381 173.12946289 214.46015381 171.39648438 215.45166016 C168.24399327 217.27029848 165.11144973 219.11855033 161.984375 220.98046875 C161.04513184 221.53387939 160.10588867 222.08729004 159.13818359 222.6574707 C157.39000211 223.68833201 155.64767992 224.72922268 153.91259766 225.78198242 C148.22594905 229.10878227 143.43456573 231.0202966 136.70703125 230.02734375 C130.59140647 227.64107651 127.61433987 224.54921792 124.6875 218.5625 C123.70285291 213.54079986 123.49252185 208.95392382 126.23828125 204.44360352 C131.08441195 198.66477304 136.71400861 195.24612523 143.30322266 191.67520142 C145.16104499 190.66795772 147.00727457 189.64190315 148.8515625 188.61010742 C151.3656026 187.20454211 153.8827477 185.80485441 156.40283203 184.41015625 C161.82733131 181.40116919 167.20319643 178.31091433 172.5625 175.1875 C173.4687915 174.6716333 174.37508301 174.1557666 175.30883789 173.62426758 C180.47982093 170.6057442 184.31260163 167.87479674 187.0625 162.375 C187.33718266 160.13982384 187.33718266 160.13982384 187.375 157.625 C187.41238281 156.78453125 187.44976562 155.9440625 187.48828125 155.078125 C186.76080302 150.45963935 184.38451459 147.40545919 180.7421875 144.56640625 C179.81664062 144.02886719 178.89109375 143.49132812 177.9375 142.9375 C177.39311279 142.616604 176.84872559 142.29570801 176.2878418 141.96508789 C174.22101258 140.75363028 172.14164376 139.56519972 170.0625 138.375 C168.1544912 137.26901671 166.24697883 136.16217674 164.33984375 135.0546875 C159.32332842 132.14743286 154.29897607 129.25407609 149.27081299 126.36701965 C143.19611731 122.87878154 137.12918253 119.37714918 131.0625 115.875 C124.54024118 112.11123284 118.01736227 108.34855372 111.4921875 104.58984375 C100.00943103 97.97358883 88.54289099 91.33109989 77.10107422 84.64428711 C69.76937521 80.36255083 62.41967019 76.11279993 55.0625 71.875 C45.725286 66.49667602 36.40857223 61.08464866 27.10595703 55.64672852 C20.83113918 51.9816949 14.54299359 48.34072527 8.24462891 44.71630859 C3.91062446 42.22136051 -0.41888247 39.71866673 -4.74804688 37.21533203 C-6.88273036 35.98360789 -9.01947082 34.75544212 -11.15820312 33.53076172 C-14.2150094 31.77964303 -17.26436978 30.01616589 -20.3125 28.25 C-21.22789551 27.72978271 -22.14329102 27.20956543 -23.08642578 26.67358398 C-28.62066956 23.44659354 -32.82585715 20.70992856 -34.9375 14.375 C-35.43929253 9.13496977 -35.586525 4.74793749 -33.3125 -0.0625 C-22.43116428 -11.80288854 -12.03390569 -7.3398807 0 0 Z " fill="#000000" transform="translate(274.9375,98.625)"/>
</svg>
