<svg width="24" height="24" viewBox="0 0 24 24" fill="none" xmlns="http://www.w3.org/2000/svg">
<path d="M0 0 C0.94432892 -0.00626404 1.88865784 -0.01252808 2.86160278 -0.01898193 C20.80835828 -0.0942026 38.30139545 1.82449939 55.75 6.125 C56.7905957 6.37991211 57.83119141 6.63482422 58.90332031 6.89746094 C96.6167785 16.51249734 130.87984407 36.86265455 158.65771484 63.89208984 C160.02528763 65.2194029 161.41130336 66.52766686 162.80078125 67.83203125 C169.35868436 74.11037899 174.81278005 81.19436018 180.25 88.4375 C180.67958008 89.00629883 181.10916016 89.57509766 181.55175781 90.16113281 C207.39966907 124.60511617 225.19981309 168.77250531 225.453125 212.2578125 C225.46018463 213.07071243 225.46724426 213.88361237 225.47451782 214.72114563 C225.86890917 273.52643618 210.39852876 330.05662748 169.546875 373.953125 C167.5704205 376.09092273 165.68445344 378.271484 163.8125 380.5 C142.12216283 405.32507121 109.93637156 423.55099617 79.25 434.4375 C78.47624023 434.71287598 77.70248047 434.98825195 76.90527344 435.27197266 C22.2062778 454.3763166 -40.97754326 453.6471339 -93.875 428.9375 C-96.17663648 427.79062742 -98.46827043 426.62348373 -100.75 425.4375 C-102.12066203 424.75434146 -103.4917782 424.07209355 -104.86328125 423.390625 C-120.28503819 415.60797672 -133.84966982 405.87805597 -146.75 394.4375 C-148.12671875 393.22707031 -148.12671875 393.22707031 -149.53125 391.9921875 C-158.12127603 384.35948365 -165.5990551 376.44369826 -172.75 367.4375 C-173.94302734 365.96990234 -173.94302734 365.96990234 -175.16015625 364.47265625 C-185.06804966 352.02105645 -192.87785305 338.34698781 -200.4375 324.375 C-200.96714355 323.42383301 -201.49678711 322.47266602 -202.04248047 321.49267578 C-205.23369871 315.45916279 -206.48161479 311.2703794 -205.75 304.4375 C-204.25 301.875 -204.25 301.875 -201.75 300.4375 C-196.26404494 299.56671348 -196.26404494 299.56671348 -193.75 300.4375 C-189.64339679 304.58853323 -187.41156141 308.8757373 -185.125 314.1875 C-178.52876301 328.77539335 -169.95767983 342.12045662 -159.75 354.4375 C-159.26354004 355.02547363 -158.77708008 355.61344727 -158.27587891 356.21923828 C-149.23211311 367.08381942 -139.86365583 376.64588264 -128.75 385.4375 C-127.23212891 386.66339844 -127.23212891 386.66339844 -125.68359375 387.9140625 C-117.79679503 394.20982565 -109.52173722 399.46639347 -100.75 404.4375 C-100.16025391 404.78022949 -99.57050781 405.12295898 -98.96289062 405.47607422 C-51.61070349 432.92299956 4.56051076 436.76416247 56.74414062 423.06396484 C92.06205782 413.37043864 121.45131566 396.29223833 148.25 371.4375 C149.13751953 370.63119141 149.13751953 370.63119141 150.04296875 369.80859375 C184.43998174 337.20904937 205.18566218 284.30313226 206.53961182 237.5486908 C206.61915715 233.40711943 206.6347335 229.26724275 206.625 225.125 C206.62445618 224.2499884 206.62391235 223.37497681 206.62335205 222.47344971 C206.46807869 167.89051499 185.90477173 115.302621 147.25 76.4375 C146.49879883 75.68025635 146.49879883 75.68025635 145.73242188 74.90771484 C107.21118822 36.59556835 50.56306261 17.9545251 -3.01220703 17.41455078 C-56.79474036 17.86537637 -105.36848948 40.67432442 -143.75 77.4375 C-144.50023437 78.14648438 -145.25046875 78.85546875 -146.0234375 79.5859375 C-151.41980198 84.81166595 -156.1309581 90.52122718 -160.75 96.4375 C-161.17152344 96.97197754 -161.59304687 97.50645508 -162.02734375 98.05712891 C-195.23330557 140.46370403 -210.75330751 195.07480758 -204.4375 248.5 C-203.48672198 256.08718552 -202.33617219 263.50712185 -200.30078125 270.88671875 C-199.35534141 275.2652451 -199.10431745 278.36136242 -201.4375 282.25 C-204.04111052 284.71287482 -205.19440576 285.35077819 -208.75 285.4375 C-212.82057707 284.37139648 -214.54610426 282.96489927 -216.75 279.4375 C-217.54742019 277.03937604 -218.19318743 274.76591889 -218.75 272.3125 C-218.91661133 271.58168213 -219.08322266 270.85086426 -219.25488281 270.09790039 C-231.59500129 212.52051204 -219.3572913 151.99941931 -187.59765625 102.6484375 C-180.30605563 91.69188174 -172.13856059 81.51337053 -163.109375 71.94921875 C-161.17641387 69.89144721 -159.35280862 67.80513388 -157.5625 65.625 C-154.31581811 61.80051879 -150.57861907 58.6635823 -146.75 55.4375 C-145.77804688 54.58929688 -144.80609375 53.74109375 -143.8046875 52.8671875 C-116.36074081 29.01934417 -83.12785897 12.57526417 -47.75 4.4375 C-46.86473633 4.22577148 -45.97947266 4.01404297 -45.06738281 3.79589844 C-30.12430735 0.36589457 -15.25968017 0.04735671 0 0 Z " fill="#000000" transform="translate(254.75,31.5625)"/>
<path d="M0 0 C12.1117925 12.18100274 21.59818232 26.27630133 29.44873047 41.4921875 C29.92802002 42.4198291 29.92802002 42.4198291 30.41699219 43.36621094 C38.96769467 60.18154954 43.821848 78.04255158 47.44873047 96.4921875 C47.69751953 97.75546875 47.94630859 99.01875 48.20263672 100.3203125 C51.64679343 122.18950339 50.70160066 146.05001162 45.44873047 167.4921875 C45.13524658 168.77391846 45.13524658 168.77391846 44.81542969 170.08154297 C37.62530286 198.35193677 23.31647361 224.12752957 3.38623047 245.37890625 C2.00030228 246.89057389 0.67947124 248.4629544 -0.59423828 250.0703125 C-3.5304928 253.70400073 -6.96557372 256.51313508 -10.55126953 259.4921875 C-11.08719727 259.94045898 -11.623125 260.38873047 -12.17529297 260.85058594 C-20.58243898 267.85114285 -29.01445226 274.08799105 -38.55126953 279.4921875 C-39.67533203 280.14703125 -40.79939453 280.801875 -41.95751953 281.4765625 C-67.90969991 296.23333412 -97.22862721 302.94504943 -126.92626953 302.8671875 C-127.71163086 302.86664368 -128.49699219 302.86609985 -129.30615234 302.86553955 C-143.02249455 302.82210261 -156.17812672 301.72642608 -169.55126953 298.4921875 C-170.84774414 298.17870361 -170.84774414 298.17870361 -172.17041016 297.85888672 C-200.41608613 290.73341857 -226.22499205 276.32393619 -247.43798828 256.4296875 C-248.94965592 255.04375931 -250.52203643 253.72292827 -252.12939453 252.44921875 C-255.76308276 249.51296423 -258.57221712 246.07788332 -261.55126953 242.4921875 C-261.99954102 241.95625977 -262.4478125 241.42033203 -262.90966797 240.86816406 C-269.91022489 232.46101805 -276.14707308 224.02900477 -281.55126953 214.4921875 C-282.20611328 213.368125 -282.86095703 212.2440625 -283.53564453 211.0859375 C-297.72450638 186.13251872 -305.00883657 157.37418335 -304.92626953 128.7421875 C-304.92572571 128.02630463 -304.92518188 127.31042175 -304.92462158 126.57284546 C-304.75707718 78.19473457 -286.44322388 31.53590455 -252.27392578 -2.85546875 C-189.71263595 -63.94035924 -82.38122364 -67.614186 0 0 Z M-162.55126953 -31.5078125 C-163.74333008 -31.20182129 -163.74333008 -31.20182129 -164.95947266 -30.88964844 C-206.14295427 -20.03275977 -243.5713135 5.47206488 -265.30541992 42.62353516 C-267.13282444 45.87393492 -268.85989619 49.16933484 -270.55126953 52.4921875 C-270.86789551 53.10239746 -271.18452148 53.71260742 -271.51074219 54.34130859 C-290.78508622 91.83317883 -292.40607361 135.49646922 -279.97021484 175.39550781 C-266.32852676 217.062518 -238.90984479 249.22253929 -199.87304688 269.34619141 C-161.56130327 288.25632016 -115.3037177 290.34703261 -74.91748047 277.11865234 C-53.05492831 269.61515691 -33.50337926 258.20742504 -16.55126953 242.4921875 C-15.64634766 241.65816406 -14.74142578 240.82414062 -13.80908203 239.96484375 C-3.59993725 230.15325134 4.48661368 218.78159204 11.44873047 206.4921875 C11.93937988 205.62980469 11.93937988 205.62980469 12.43994141 204.75 C32.72575264 168.49282324 38.51709312 122.92272513 27.44750977 82.94775391 C15.89720697 43.14120008 -10.24248659 7.1061686 -46.67626953 -13.3828125 C-49.28014531 -14.80119424 -51.90634407 -16.16771693 -54.55126953 -17.5078125 C-55.18274902 -17.82975586 -55.81422852 -18.15169922 -56.46484375 -18.48339844 C-87.97350624 -34.34733209 -128.03175096 -40.5317873 -162.55126953 -31.5078125 Z " fill="#000000" transform="translate(383.55126953125,130.5078125)"/>
<path d="M0 0 C5.68820474 4.19784542 8.74361479 10.26422498 11.0390625 16.8203125 C11.87712031 22.7309449 11.86221201 28.55603726 11.81542969 34.515625 C11.82357588 36.27131449 11.83426788 38.02699371 11.84729004 39.78265381 C11.8744751 44.51839442 11.86410832 49.25334444 11.84501553 53.9890976 C11.82973763 58.96426902 11.84393689 63.93937646 11.85333252 68.91455078 C11.86422321 77.26672414 11.84992918 85.61857832 11.82128906 93.97070312 C11.78864016 103.60261428 11.79921895 113.2337632 11.8322475 122.8656559 C11.85954751 131.16162413 11.86328249 139.45736398 11.84761548 147.75336266 C11.83830074 152.69672499 11.83690471 157.63973001 11.85683441 162.58306885 C11.87427263 167.23249933 11.86195405 171.88095499 11.82746887 176.53028107 C11.81959122 178.22809487 11.82171741 179.9259919 11.83504486 181.62377167 C11.91346845 192.63638605 10.83586883 202.08575308 3.32871628 210.80734253 C-2.6363839 216.6690613 -10.32682442 219.03338322 -18.5234375 219.3203125 C-27.44720644 218.99562138 -33.6712968 215.84625147 -40.16796875 209.81640625 C-46.44537093 202.82783868 -48.07976817 195.87758902 -48.10137939 186.67388916 C-48.10435052 185.96542902 -48.10732164 185.25696887 -48.1103828 184.52704024 C-48.11903719 182.15896528 -48.12057527 179.79094107 -48.12207031 177.42285156 C-48.1267008 175.72245171 -48.13172577 174.02205289 -48.13711548 172.32165527 C-48.15021931 167.70579218 -48.1566805 163.08994361 -48.16112614 158.47406483 C-48.16406012 155.58827584 -48.16816555 152.70249079 -48.17263031 149.8167038 C-48.18629994 140.78197188 -48.19596921 131.74724902 -48.1998322 122.71250749 C-48.20431175 112.2939171 -48.22185715 101.87545799 -48.2508328 91.45690751 C-48.2724698 83.39643278 -48.28253756 75.33599493 -48.28387332 67.27549148 C-48.2849199 62.4646587 -48.29079642 57.65394941 -48.30869293 52.84314728 C-48.32520853 48.31558801 -48.32731222 43.78824461 -48.31855392 39.26066589 C-48.31778542 37.6035021 -48.32210161 35.94632653 -48.33201218 34.2891922 C-48.3987007 22.4386892 -47.9629633 12.0718537 -39.20703125 3.00390625 C-27.79965644 -7.6891124 -13.27437267 -7.98577798 0 0 Z M-27.9609375 15.8203125 C-30.66339402 20.35547357 -31.33832085 23.69824933 -31.34861755 28.94859314 C-31.35400309 29.64298463 -31.35938863 30.33737612 -31.36493737 31.05280977 C-31.37918463 33.36733945 -31.37212154 35.68129458 -31.36499023 37.99584961 C-31.37069551 39.6602372 -31.37766038 41.32462089 -31.38578796 42.98899841 C-31.40371708 47.50142243 -31.40255147 52.01365195 -31.39684558 56.52610087 C-31.39375339 60.2959993 -31.39984652 64.06586039 -31.40588433 67.8357535 C-31.41992711 76.73062187 -31.41837029 85.62539419 -31.40698242 94.52026367 C-31.39550099 103.69075298 -31.40957783 112.86094985 -31.4363789 122.03140062 C-31.45854351 129.91099223 -31.46517157 137.7904921 -31.45930248 145.67011267 C-31.45593358 150.37357529 -31.45834357 155.07685044 -31.47555351 159.78028679 C-31.49103275 164.20369904 -31.48705636 168.62667841 -31.46824837 173.05007362 C-31.4645652 174.6709828 -31.46766306 176.29192411 -31.47813416 177.91280365 C-31.49136538 180.13071493 -31.4797799 182.34719753 -31.46214294 184.56504822 C-31.46193366 185.80444121 -31.46172438 187.04383421 -31.46150875 188.32078457 C-30.82531326 192.76847083 -29.47852214 195.10827489 -26.9609375 198.8203125 C-22.94960953 201.52359874 -19.7685585 202.5214239 -14.9609375 201.8203125 C-10.53915313 199.47936783 -8.12272685 197.30907001 -5.9609375 192.8203125 C-5.51146549 189.45351683 -5.51146549 189.45351683 -5.57998657 185.72290039 C-5.5753066 185.01978509 -5.57062663 184.31666979 -5.56580484 183.59224796 C-5.55386339 181.24229488 -5.56330839 178.8929259 -5.57275391 176.54296875 C-5.56868782 174.85578064 -5.56334572 173.1685952 -5.55682373 171.48141479 C-5.54314877 166.90294235 -5.54844952 162.32467273 -5.55796099 157.74619675 C-5.56555663 152.95457157 -5.55851224 148.16296375 -5.55380249 143.37133789 C-5.54834467 135.32467532 -5.55553727 127.27809535 -5.56982422 119.23144531 C-5.58615078 109.92862738 -5.58086229 100.6260067 -5.564345 91.32319355 C-5.55073091 83.33580239 -5.5488101 75.3484706 -5.55666101 67.36107159 C-5.56133795 62.59062657 -5.5619618 57.82027426 -5.55205154 53.04983521 C-5.54338529 48.56494031 -5.54939753 44.08029971 -5.56673431 39.59543228 C-5.57070098 37.94949898 -5.56956202 36.30354427 -5.56294632 34.65761948 C-5.55474765 32.41069897 -5.5650313 30.16459321 -5.57998657 27.91772461 C-5.58111765 26.66044052 -5.58224873 25.40315643 -5.58341408 24.10777283 C-6.15887883 19.09664656 -7.9279077 16.66969256 -11.7734375 13.5078125 C-17.67301758 10.3845054 -23.05483262 11.37749597 -27.9609375 15.8203125 Z " fill="#000000" transform="translate(226.9609375,149.1796875)"/>
<path d="M0 0 C6.60391372 5.23119008 10.4811875 12.21813452 11.7734375 20.52734375 C11.92727214 23.55990194 11.93736778 26.58896471 11.94140625 29.625 C11.94639885 30.93192055 11.94639885 30.93192055 11.95149231 32.26524353 C11.95654147 34.10170974 11.95890126 35.93818506 11.95874023 37.7746582 C11.96093266 40.58364886 11.97912579 43.39225031 11.99804688 46.20117188 C12.00098002 47.98827991 12.00296534 49.77538981 12.00390625 51.5625 C12.01109177 52.40112076 12.01827728 53.23974152 12.02568054 54.10377502 C12.02260391 54.88816452 12.01952728 55.67255402 12.01635742 56.48071289 C12.01778244 57.16734512 12.01920746 57.85397736 12.02067566 58.56141663 C11.72072466 60.94649267 11.04785358 62.49221595 9.7734375 64.52734375 C6.02296268 67.02766029 4.21487484 67.06337929 -0.2265625 66.52734375 C-2.94809476 64.54043247 -4.89657399 62.95910265 -5.67755127 59.57058716 C-5.85179308 57.20060094 -5.86631004 54.87607503 -5.828125 52.5 C-5.83613129 51.63346298 -5.84413757 50.76692596 -5.85238647 49.87413025 C-5.87541597 47.11222282 -5.8660116 44.35179017 -5.8515625 41.58984375 C-5.84770738 38.83174404 -5.85122083 36.07429603 -5.87216187 33.31626892 C-5.88419228 31.60338697 -5.88167889 29.89032184 -5.86245728 28.17750549 C-5.88554274 23.22510073 -6.44622156 19.80286657 -9.2265625 15.52734375 C-13.24269045 12.84992512 -16.42930474 11.82774366 -21.2265625 12.52734375 C-25.18843447 14.66065943 -27.66622098 16.28636549 -29.2265625 20.52734375 C-29.53676096 23.80967555 -29.53676096 23.80967555 -29.50071716 27.53573608 C-29.50595384 28.24137495 -29.51119052 28.94701381 -29.51658589 29.67403567 C-29.53158732 32.03844441 -29.53229106 34.40263678 -29.53295898 36.76708984 C-29.54058034 38.46236028 -29.5490078 40.15762727 -29.55818176 41.85289001 C-29.58013502 46.4582877 -29.58892668 51.06361899 -29.59400821 55.66906309 C-29.59765056 58.54628634 -29.60388996 61.42349216 -29.6110096 64.30070877 C-29.6355062 74.33817561 -29.64855661 84.37559074 -29.65209961 94.41308594 C-29.65573587 103.76990198 -29.68563713 113.1263902 -29.72750419 122.48310602 C-29.76218942 130.51634642 -29.77764774 138.54947808 -29.77834564 146.58279288 C-29.77913901 151.38077562 -29.78790515 156.17842442 -29.81634331 160.9763298 C-29.84249399 165.48921718 -29.84474611 170.00149299 -29.82868767 174.51442146 C-29.82687082 176.16962707 -29.83358524 177.8248676 -29.84950638 179.47999763 C-29.8699402 181.74238392 -29.8594343 184.00262493 -29.84129333 186.26498413 C-29.84330466 187.53001959 -29.84531599 188.79505505 -29.84738827 190.09842491 C-29.01996177 194.66843221 -27.51583151 196.28833336 -24.2265625 199.52734375 C-20.60725552 200.73377941 -18.03425245 200.85002934 -14.2265625 200.52734375 C-11.02045052 198.89404142 -8.88127712 197.67002012 -7.07455444 194.51673889 C-5.83176398 190.13557489 -5.95166979 185.91732616 -5.97119141 181.38452148 C-5.96757095 180.36609161 -5.9639505 179.34766174 -5.96022034 178.29837036 C-5.95333528 176.09071688 -5.95081923 173.88304642 -5.95216751 171.67538261 C-5.95313271 168.18305304 -5.94019229 164.69103126 -5.92318726 161.19874573 C-5.8769036 151.27094888 -5.85229429 141.34318424 -5.84570312 131.4152832 C-5.84069748 125.3404684 -5.81649914 119.26597643 -5.78037643 113.19127083 C-5.77055976 110.87520343 -5.76825661 108.55909173 -5.77354813 106.24300957 C-5.78059327 103.00857715 -5.7633896 99.77511238 -5.74072266 96.54077148 C-5.74889511 95.58118027 -5.75706757 94.62158905 -5.76548767 93.63291931 C-5.68461607 87.16348641 -5.68461607 87.16348641 -3.37802124 83.96009827 C-0.55501262 82.08012805 1.38081189 81.59658101 4.7734375 81.52734375 C8.60485255 83.18181843 10.22535039 84.70824434 11.7734375 88.52734375 C12.03070641 90.62863255 12.03070641 90.62863255 12.04086304 92.92054749 C12.04939301 93.79363556 12.05792297 94.66672363 12.06671143 95.56626892 C12.06580505 96.51643387 12.06489868 97.46659882 12.06396484 98.44555664 C12.07068207 99.45259644 12.07739929 100.45963623 12.08432007 101.49719238 C12.10333918 104.83151164 12.10722696 108.16562984 12.109375 111.5 C12.11580268 113.82205793 12.12253102 116.14411504 12.12954712 118.46617126 C12.14153143 123.33936437 12.145227 128.21248655 12.14404297 133.08569336 C12.14384028 139.31073387 12.17108536 145.53531526 12.20558739 151.76024723 C12.22790355 156.56029825 12.23187898 161.36023987 12.23082352 166.16033745 C12.23317456 168.45390841 12.24196991 170.74748261 12.25748825 173.04100227 C12.277233 176.26211039 12.27127533 179.48224303 12.25927734 182.70336914 C12.27051636 183.63936447 12.28175537 184.5753598 12.29333496 185.53971863 C12.20135046 195.32949762 9.40116038 203.74878514 2.56640625 210.875 C-4.67571469 217.54911145 -11.92515662 219.12131424 -21.546875 218.96875 C-28.97462409 218.07773551 -35.60403696 214.69594607 -40.7265625 209.21484375 C-47.54316259 199.56349607 -47.80392581 190.69071153 -47.74414062 179.23266602 C-47.74956737 177.48403339 -47.75669313 175.73540535 -47.76538086 173.98678589 C-47.7835528 169.25734446 -47.77657173 164.52825367 -47.76386452 159.79880643 C-47.7537034 154.83737352 -47.76313897 149.87596967 -47.76940918 144.91453552 C-47.77667722 136.58318724 -47.76712075 128.25198099 -47.74804688 119.9206543 C-47.72628693 110.30538337 -47.73332655 100.69045186 -47.7553525 91.07518917 C-47.77353909 82.80312824 -47.77604869 74.53116914 -47.76559782 66.25909466 C-47.75937987 61.32588228 -47.7584802 56.39282913 -47.77174377 51.45962715 C-47.78334893 46.81947039 -47.77519179 42.17974859 -47.75216675 37.53963852 C-47.74690417 35.84259066 -47.74835115 34.14550583 -47.75721741 32.44847298 C-47.80635713 22.08253488 -47.40173678 12.85544684 -40.9765625 4.21484375 C-29.40564899 -7.09309445 -13.59108112 -8.98918874 0 0 Z " fill="#000000" transform="translate(321.2265625,149.47265625)"/>
</svg>
