<svg width="24" height="24" viewBox="0 0 24 24" fill="none" xmlns="http://www.w3.org/2000/svg">
<path d="M0 0 C5.92011712 3.78440695 11.90255863 7.46498524 17.890625 11.140625 C18.98930908 11.81544922 20.08799316 12.49027344 21.2199707 13.18554688 C23.46822775 14.56607564 25.71668277 15.94628204 27.96533203 17.32617188 C33.42245015 20.67635271 38.87511882 24.03375703 44.328125 27.390625 C50.88609617 31.42679413 57.44443254 35.46236689 64.00390625 39.49609375 C74.80140959 46.13681177 85.59266358 52.78720409 96.36767578 59.46435547 C107.67150452 66.4662528 119.00148541 73.42571496 130.328125 80.390625 C143.3514752 88.39886627 156.37208142 96.41113482 169.36767578 104.46435547 C180.67150452 111.4662528 192.00148541 118.42571496 203.328125 125.390625 C229.46017047 141.45958742 229.46017047 141.45958742 242.33691406 149.44677734 C247.21242929 152.46899925 252.09634392 155.47709636 256.98828125 158.47265625 C258.14585671 159.18225353 259.30340878 159.89188897 260.4609375 160.6015625 C262.67167263 161.95693142 264.88410437 163.30937733 267.09765625 164.66015625 C288.33564565 177.68043116 305.11056553 190.12925895 313.328125 214.390625 C313.58335937 215.11765625 313.83859375 215.8446875 314.1015625 216.59375 C318.92793485 232.68165784 316.18281238 250.43668409 309.328125 265.390625 C308.69777344 266.79248047 308.69777344 266.79248047 308.0546875 268.22265625 C299.46626552 285.57325442 283.63765197 294.98729252 267.58422852 304.59008789 C264.51451427 306.42645386 261.45336757 308.27703895 258.390625 310.125 C257.47669983 310.67559082 257.47669983 310.67559082 256.54431152 311.23730469 C251.27853391 314.41207564 246.04798742 317.6411059 240.828125 320.890625 C232.09248756 326.32209164 223.30445266 331.66481409 214.50634766 336.99414062 C206.92323124 341.58848504 199.35810986 346.20950411 191.828125 350.890625 C183.09210901 356.32149208 174.30445988 361.66480972 165.50634766 366.99414062 C157.92323124 371.58848504 150.35810986 376.20950411 142.828125 380.890625 C134.09480417 386.3198166 125.31013902 391.66196713 116.5144043 396.98910522 C108.76009537 401.68638665 101.02747928 406.41609395 93.328125 411.203125 C86.33803308 415.5465556 79.31928806 419.83862762 72.265625 424.078125 C71.42580078 424.58384033 70.58597656 425.08955566 69.72070312 425.6105957 C68.94017578 426.07812256 68.15964844 426.54564941 67.35546875 427.02734375 C66.67218506 427.43686279 65.98890137 427.84638184 65.28491211 428.26831055 C58.94764554 431.90304722 53.62630298 432.22869328 46.328125 431.390625 C40.3966158 429.27492745 36.21302514 424.92517591 33.328125 419.390625 C31.24055872 412.59265275 32.0905917 407.06970463 34.76953125 400.6640625 C39.64264101 393.55591743 47.68420976 389.57476914 54.953125 385.328125 C57.2103649 383.99211714 59.46686496 382.65485857 61.72265625 381.31640625 C62.84236816 380.65334473 63.96208008 379.9902832 65.11572266 379.30712891 C69.65800542 376.59722469 74.15267441 373.81430074 78.640625 371.015625 C86.83457463 365.91524461 95.07262297 360.89044194 103.328125 355.890625 C111.51905986 350.92930895 119.69512105 345.94662118 127.828125 340.890625 C136.56414099 335.45975792 145.35179012 330.11644028 154.14990234 324.78710938 C161.73301876 320.19276496 169.29814014 315.57174589 176.828125 310.890625 C184.96113188 305.83462701 193.13730445 300.85213309 201.328125 295.890625 C210.46057456 290.35862883 219.57034797 284.79306939 228.63500977 279.15039062 C233.24507199 276.28459102 237.87261134 273.45159833 242.5234375 270.65234375 C243.56395264 270.02481201 244.60446777 269.39728027 245.67651367 268.75073242 C247.67929384 267.54475897 249.68452428 266.34284177 251.69262695 265.14575195 C255.61375288 262.78251912 259.38672748 260.47477824 262.86328125 257.484375 C265.328125 255.390625 265.328125 255.390625 267.328125 255.390625 C267.99598936 254.05789119 268.66237994 252.72441874 269.328125 251.390625 C269.66972656 250.71644531 270.01132812 250.04226563 270.36328125 249.34765625 C273.96832211 241.8223048 275.35274501 234.89704504 273.16796875 226.71484375 C268.22245138 213.02841195 256.88636815 207.58587741 244.9805603 200.45547485 C241.88706164 198.60218006 238.80101426 196.73655807 235.71484375 194.87109375 C235.09057999 194.49397751 234.46631622 194.11686127 233.82313538 193.72831726 C227.8495046 190.11341218 221.92756741 186.4179725 216.015625 182.703125 C207.30524942 177.23346746 198.54754467 171.84904303 189.75390625 166.5144043 C182.62914228 162.18996009 175.53443594 157.81927625 168.45239258 153.42529297 C161.42118733 149.06372485 154.37658088 144.72425363 147.328125 140.390625 C139.48739127 135.56916571 131.65188142 130.73958633 123.828125 125.890625 C111.67912775 118.36191583 99.50311617 110.87719836 87.328125 103.390625 C74.3047748 95.38238373 61.28416858 87.37011518 48.28857422 79.31689453 C36.98474548 72.3149972 25.65476459 65.35553504 14.328125 58.390625 C9.89040826 55.66181054 5.45294047 52.9325919 1.015625 50.203125 C-0.06066162 49.54143311 -1.13694824 48.87974121 -2.24584961 48.19799805 C-7.33148592 45.06959514 -12.41231371 41.93400109 -17.48046875 38.77734375 C-38.88469682 24.20030796 -38.88469682 24.20030796 -63.671875 20.390625 C-70.83533632 22.22070636 -77.27014847 26.51426327 -81.1796875 32.82421875 C-84.53608313 39.27808806 -85.79598594 44.56167364 -85.80050945 51.85285568 C-85.80534612 53.82409822 -85.80534612 53.82409822 -85.8102805 55.83516383 C-85.80880938 57.29202582 -85.80724167 58.74888772 -85.80558777 60.20574951 C-85.80745594 61.75457605 -85.80975667 63.30340213 -85.81245309 64.85222745 C-85.81857684 69.11055231 -85.81843682 73.36885756 -85.81725872 77.62718582 C-85.81705485 82.21899977 -85.82257212 86.8108074 -85.82731628 91.40261841 C-85.83562673 100.40001222 -85.83837131 109.39739949 -85.83892866 118.39479682 C-85.83940367 125.70819852 -85.84145766 133.02159806 -85.84462929 140.33499908 C-85.85343722 161.06677915 -85.85804849 181.79855404 -85.85729881 202.53033599 C-85.85723888 204.20721421 -85.85723888 204.20721421 -85.85717773 205.91796875 C-85.85711641 207.59689303 -85.85711641 207.59689303 -85.85705385 209.30973497 C-85.85664742 227.44841917 -85.86621584 245.5870826 -85.8803161 263.72576079 C-85.89467766 282.34743837 -85.90158639 300.96910582 -85.90072232 319.59078908 C-85.90039026 330.04660624 -85.90314139 340.50240163 -85.91390038 350.95821381 C-85.92300251 359.86099223 -85.92518301 368.76373903 -85.91839095 377.66652009 C-85.91512421 382.20833957 -85.91507465 386.75009836 -85.9237442 391.29191208 C-85.93160332 395.45197141 -85.93018376 399.61192187 -85.92146007 403.77197853 C-85.91992378 405.27467153 -85.92174611 406.77737264 -85.92732015 408.28005609 C-85.97231925 421.27480263 -84.84791594 430.80291756 -76.484375 441.078125 C-69.56826916 446.76470092 -63.11240697 449.27204442 -54.09765625 448.96484375 C-49.00951766 448.11198586 -44.74338847 445.92353556 -40.1015625 443.7421875 C-34.29349481 441.453359 -28.51215345 441.11994463 -22.546875 443.09375 C-17.11585427 445.85607951 -12.95653147 450.78466177 -10.671875 456.390625 C-9.7761056 463.77551458 -10.05393645 469.47019096 -14.671875 475.390625 C-21.60086485 483.67108966 -35.19456114 488.68432971 -45.671875 490.390625 C-49.26027474 490.67893158 -52.82307451 490.72421414 -56.421875 490.703125 C-57.39543945 490.69893555 -58.36900391 490.69474609 -59.37207031 490.69042969 C-66.50632624 490.57847308 -72.91962451 489.80589345 -79.671875 487.390625 C-80.89970703 487.00777344 -80.89970703 487.00777344 -82.15234375 486.6171875 C-99.15049666 480.72593578 -111.96536593 467.25691685 -120.109375 451.6328125 C-127.08653623 437.05552921 -127.82388324 422.91733166 -127.80558777 407.01460266 C-127.80745854 405.465737 -127.8097603 403.91687181 -127.81245309 402.36800736 C-127.8185446 398.13256288 -127.81844063 393.89713821 -127.81725872 389.66169035 C-127.81705404 385.08552793 -127.82257988 380.50937176 -127.82731628 375.93321228 C-127.8356089 366.97526459 -127.8383705 358.01732349 -127.83892866 349.05937228 C-127.83940449 341.77474585 -127.84146257 334.49012158 -127.84462929 327.20549583 C-127.85343214 306.53365048 -127.85804925 285.86181032 -127.85729881 265.18996308 C-127.85725886 264.07644763 -127.8572189 262.96293217 -127.85717773 261.81567383 C-127.85713685 260.70079235 -127.85709597 259.58591086 -127.85705385 258.43724509 C-127.85664751 240.37406391 -127.86621511 222.31090359 -127.8803161 204.24772844 C-127.89469429 185.68236422 -127.90158549 167.11701015 -127.90072232 148.55164021 C-127.90039085 138.13594792 -127.90311623 127.72027749 -127.91390038 117.30459023 C-127.92302438 108.43577451 -127.92516505 99.56699058 -127.91839095 90.69817219 C-127.91513531 86.17785237 -127.91503437 81.65759346 -127.9237442 77.13727951 C-127.93165259 72.99005873 -127.93013389 68.84294671 -127.92146007 64.69572844 C-127.91993457 63.20451816 -127.92170489 61.71329959 -127.92732015 60.2220991 C-128.00517139 38.05973722 -124.82803676 17.44013323 -109.03125 0.7421875 C-75.05765228 -33.11891486 -36.28005384 -23.23453586 0 0 Z " fill="#000000" transform="translate(161.671875,21.609375)"/>
</svg>
