<svg xmlns="http://www.w3.org/2000/svg" data-encore-id="icon" role="img" aria-hidden="true" viewBox="0 0 24 24" class="Svg-sc-ytk21e-0 iYxpxA"><path d="M0 0 C1.23460172 -0.00307895 1.23460172 -0.00307895 2.49414489 -0.0062201 C5.27000259 -0.01190367 8.04581088 -0.01043118 10.82167339 -0.00901413 C12.82479033 -0.01159698 14.82790674 -0.01460992 16.83102244 -0.01801753 C22.34963819 -0.02610006 27.86824095 -0.0278778 33.38686192 -0.028615 C39.33313321 -0.03046335 45.27939771 -0.03800954 51.22566509 -0.04475021 C64.91221022 -0.05905143 78.59875438 -0.06486099 92.28530528 -0.06944216 C99.04741595 -0.07177768 105.80952578 -0.07538026 112.57163579 -0.07913754 C135.71534093 -0.09197262 158.85904559 -0.10269233 182.00275421 -0.10614014 C183.45564073 -0.10636177 184.90852724 -0.10658355 186.36141376 -0.10680549 C187.81782195 -0.10702613 189.27423014 -0.10724661 190.73063833 -0.10746694 C193.6524781 -0.10790949 196.57431787 -0.10835661 199.49615765 -0.10880661 C200.22060434 -0.108916 200.94505103 -0.10902539 201.69145065 -0.1091381 C225.18768359 -0.11276965 248.68388571 -0.12869363 272.18010684 -0.15199697 C297.01719474 -0.17658519 321.854265 -0.19031249 346.69136542 -0.19150805 C349.41706956 -0.19167951 352.14277369 -0.19189494 354.86847782 -0.19214249 C355.53963099 -0.19219826 356.21078416 -0.19225402 356.90227531 -0.19231148 C367.70906743 -0.19346274 378.51582794 -0.20449101 389.32260938 -0.21902954 C400.18154531 -0.23338582 411.04043872 -0.23638363 421.89938144 -0.22858956 C427.78371554 -0.22467418 433.66794311 -0.22565599 439.55226421 -0.23964691 C444.93664728 -0.25233237 450.32084318 -0.25123557 455.70522579 -0.2390562 C457.65542152 -0.2370899 459.60563028 -0.2402204 461.55580769 -0.24890056 C464.20313903 -0.25993981 466.8498036 -0.25254257 469.49711609 -0.24050903 C470.25729549 -0.24810423 471.01747489 -0.25569942 471.80069003 -0.26352477 C477.46357421 -0.20781432 482.33748246 0.84053974 486.67950726 4.66658401 C491.29672893 10.89187254 491.8071369 15.40191633 490.93731976 23.13142776 C489.28034753 27.2310056 487.11198736 29.41988884 483.35554212 31.69530445 C479.32691132 33.38788322 475.85656791 33.54936698 471.56607437 33.5117445 C470.31788088 33.51873438 470.31788088 33.51873438 469.04447135 33.52586547 C466.24968817 33.53783823 463.45538907 33.52841122 460.66060162 33.51910782 C458.63925694 33.52327973 456.6179146 33.52875646 454.59657663 33.53542763 C449.03682937 33.5499196 443.47722987 33.54562579 437.91747439 33.53826082 C431.92351066 33.53354074 425.92957943 33.54602868 419.93562603 33.55627823 C408.87021769 33.57249871 397.80484816 33.57490685 386.73943287 33.56997324 C376.5167634 33.56541757 366.29411151 33.56601336 356.0714426 33.57181358 C354.70064159 33.57257045 353.32984057 33.57332643 351.95903955 33.57408153 C349.89341405 33.57522671 347.82778856 33.57637659 345.76216307 33.57754077 C326.55577963 33.58824711 307.34940205 33.59296962 288.14301682 33.58507061 C287.41888791 33.58477344 286.69475901 33.58447626 285.94868681 33.58417008 C280.06809807 33.5817211 274.1875094 33.57910954 268.30692074 33.57648595 C245.3667167 33.56638274 222.42658585 33.57473977 199.48639202 33.5979805 C173.71693963 33.62404527 147.94753131 33.63690317 122.17806524 33.62979275 C119.43104773 33.62907668 116.6840302 33.62840229 113.93701267 33.6277523 C113.2606199 33.6275825 112.58422713 33.62741269 111.88733761 33.62723773 C101.67155531 33.62493358 91.4558139 33.63291726 81.24004078 33.64604378 C69.62385198 33.66094305 58.00774235 33.66143916 46.39155252 33.64397287 C40.46262429 33.63543673 34.5338793 33.63337706 28.60496044 33.64862442 C23.17988993 33.66240357 17.75516079 33.65779582 12.33011036 33.63838518 C10.36517246 33.63460401 8.40020764 33.63760763 6.43529356 33.64799684 C3.76791723 33.66109983 1.10173082 33.64964343 -1.56559372 33.63199902 C-2.71463135 33.64647478 -2.71463135 33.64647478 -3.88688186 33.66124299 C-10.49595189 33.57124415 -14.81400624 31.43776007 -19.50018024 26.63142776 C-21.8084873 21.46081997 -21.82056922 16.70459111 -21.06268024 11.13142776 C-18.82235733 6.48483209 -15.42221751 2.34577102 -10.41034776 0.53417325 C-6.94762569 -0.05986133 -3.50206952 -0.00807715 0 0 Z " fill="#000000" transform="translate(21.0626802444458,161.86857223510742)"/>
<path d="M0 0 C0.83328284 -0.00581376 1.66656568 -0.01162753 2.52509952 -0.01761746 C5.31792121 -0.03221786 8.10986412 -0.01833207 10.90267944 -0.00457001 C12.92488873 -0.0091789 14.94709467 -0.01553173 16.96929359 -0.02347898 C22.52682607 -0.04019694 28.08408424 -0.03191461 33.64161777 -0.01953411 C39.63488702 -0.0104961 45.62810859 -0.02444716 51.62136841 -0.0354538 C62.68367752 -0.05222772 73.74591105 -0.05075271 84.80822068 -0.03980792 C95.02764357 -0.02974668 105.24703436 -0.02711843 115.46646118 -0.0318985 C116.14427405 -0.03220404 116.82208692 -0.03250958 117.52043958 -0.03282438 C120.27188589 -0.03406973 123.02333219 -0.03534333 125.77477846 -0.03666343 C151.58676977 -0.04890012 177.39870532 -0.0378045 203.21068802 -0.01627585 C226.14434394 0.00270666 249.07791102 0.00100816 272.01156616 -0.01811981 C297.77626852 -0.03953719 323.54092161 -0.04803231 349.30563164 -0.03567076 C352.05207188 -0.03438788 354.79851213 -0.03313652 357.54495239 -0.0318985 C358.22119866 -0.03158219 358.89744494 -0.03126588 359.59418352 -0.03093999 C369.80731953 -0.02638961 380.02041994 -0.03171208 390.23355103 -0.04181671 C401.84606106 -0.05324855 413.45848654 -0.05002013 425.07098722 -0.02869374 C430.99789351 -0.01816835 436.92461933 -0.014087 442.85152435 -0.02729034 C448.27471068 -0.039189 453.69754882 -0.03269316 459.12070346 -0.01138014 C461.08493605 -0.00690338 463.04919791 -0.0092043 465.01341176 -0.01888329 C467.67983276 -0.03101697 470.34505545 -0.01860302 473.01141357 0 C474.16002243 -0.014047 474.16002243 -0.014047 475.33183551 -0.02837777 C481.93924161 0.06399407 486.25821333 2.19824307 490.94320679 7.00336456 C493.25313866 12.17761195 493.25641197 16.92669748 492.50570679 22.50336456 C490.2094122 27.44922983 487.19246814 29.81096974 482.50570679 32.50336456 C478.81536196 33.73347951 475.41158185 33.64499411 471.56886768 33.63758564 C470.74725331 33.63993787 469.92563894 33.6422901 469.07912716 33.64471361 C466.30218396 33.65141635 463.52528742 33.650945 460.74833679 33.65053558 C458.74679546 33.65383341 456.7452548 33.65755881 454.74371499 33.66167706 C449.22477208 33.67171434 443.70584004 33.67541663 438.18688929 33.67806637 C432.24194348 33.68196429 426.29700633 33.69154295 420.35206604 33.70027924 C406.66524112 33.71912272 392.97841465 33.72930169 379.29158033 33.73773992 C372.5293753 33.74194533 365.76717117 33.74716746 359.00496689 33.75242445 C335.86138527 33.77031518 312.71780339 33.78531166 289.57421589 33.79274464 C288.12104295 33.7932194 286.66787001 33.79369528 285.21469707 33.7941723 C284.13372273 33.79452686 284.13372273 33.79452686 283.03091053 33.79488859 C279.37968701 33.7960898 275.7284635 33.79730525 272.07723999 33.79853058 C271.35264117 33.79877073 270.62804236 33.79901088 269.881486 33.79925831 C246.38554983 33.80715213 222.88966413 33.83058541 199.39375 33.86308652 C174.55797149 33.89737836 149.72222252 33.91709517 124.88641995 33.92038888 C122.16040145 33.92080642 119.43438297 33.92128599 116.70836449 33.92181206 C116.03713224 33.92193525 115.36589999 33.92205844 114.67432737 33.92218537 C103.86859523 33.92451819 93.06292166 33.94018269 82.25721041 33.9606539 C71.39700729 33.98090204 60.53687795 33.98606037 49.67665968 33.97688327 C43.79217639 33.97232776 37.90788344 33.97429748 32.02342606 33.99364471 C26.63767063 34.01119968 21.25224549 34.01034105 15.86648693 33.99474742 C13.91691424 33.99235968 11.96731913 33.99675495 10.01778082 34.00857607 C7.36870205 34.0236454 4.72080112 34.01405711 2.07175159 33.99834919 C1.31391336 34.0085714 0.55607513 34.0187936 -0.2247279 34.02932557 C-5.69913475 33.95842407 -9.91165201 32.52953873 -14.49429321 29.50336456 C-19.43355366 24.18416101 -19.85274386 20.59483891 -19.76773071 13.48773956 C-19.39556593 9.42582683 -18.3368024 7.4187586 -15.49429321 4.50336456 C-10.13223915 0.85338274 -6.41494521 -0.07845205 0 0 Z " fill="#000000" transform="translate(19.494293212890625,26.49663543701172)"/>
<path d="M0 0 C7.39553517 2.79608544 14.18766464 7.42218063 20.88916016 11.55493164 C23.95423679 13.44441559 27.02810679 15.3194995 30.1015625 17.1953125 C30.74482483 17.58821472 31.38808716 17.98111694 32.05084229 18.38592529 C39.32813655 22.82320085 46.66360504 27.16141966 54 31.5 C65.18244063 38.11702922 76.3127588 44.81261749 87.40649414 51.57714844 C95.68985769 56.62215028 104.01908977 61.58627525 112.36657715 66.52435303 C132.38544144 78.37224026 132.38544144 78.37224026 142.25 84.375 C143.0948999 84.87999023 143.9397998 85.38498047 144.81030273 85.90527344 C149.69338562 88.90316403 153.37246785 91.7449357 156 97 C156.48903328 102.35531529 156.70463791 107.30246323 154.625 112.3125 C147.80600793 119.29384902 138.84738667 123.98478264 130.4559021 128.81951904 C127.24426785 130.67096637 124.04205191 132.53856063 120.83984375 134.40625 C120.18343399 134.78889008 119.52702423 135.17153015 118.85072327 135.56576538 C112.24785132 139.42351681 105.71414315 143.38977087 99.1875 147.375 C88.49624433 153.90097918 77.74771023 160.32394193 66.96786499 166.7024231 C58.02613912 171.99494832 49.11770028 177.33713586 40.24728394 182.74832153 C38.51757043 183.80179878 36.78574455 184.8516987 35.05297852 185.90014648 C29.44977354 189.29061569 23.86497882 192.70514729 18.30859375 196.171875 C16.18546379 197.4696796 14.06179068 198.76659617 11.9375 200.0625 C10.99261719 200.66489502 10.04773438 201.26729004 9.07421875 201.88793945 C2.6776161 205.74132142 -2.53526205 207.1209225 -10 206 C-14.98982923 204.43136898 -17.69839723 201.52169183 -20.18334866 196.95169556 C-21.51817433 193.76162754 -21.55177234 190.61031584 -21.50793457 187.21324158 C-21.51417453 186.46012036 -21.5204145 185.70699915 -21.52684355 184.93105608 C-21.54271658 182.4236835 -21.53019235 179.91729079 -21.51757812 177.40991211 C-21.52300175 175.60582413 -21.53012576 173.80174059 -21.53881836 171.99766541 C-21.55702475 167.10929234 -21.5499956 162.22125766 -21.53730202 157.33287883 C-21.52716202 152.21341092 -21.53657033 147.09397163 -21.54284668 141.97450256 C-21.5501195 133.37902636 -21.54054424 124.78368773 -21.52148438 116.18823242 C-21.49970944 106.25369052 -21.50677302 96.31947692 -21.52879 86.38494295 C-21.5469461 77.85056752 -21.54950149 69.31629087 -21.53903532 60.78190237 C-21.53280246 55.68670461 -21.53195926 50.59166114 -21.54518127 45.49647331 C-21.55674242 40.70697863 -21.54870915 35.91790704 -21.52560425 31.12845802 C-21.52031888 29.37167946 -21.52182801 27.61486523 -21.53065491 25.85810089 C-21.54160097 23.45817949 -21.5278596 21.05961023 -21.50793457 18.65977478 C-21.51685746 17.96609218 -21.52578034 17.27240958 -21.53497362 16.5577063 C-21.45536139 11.60760673 -20.06370798 8.8302091 -17 5 C-11.32595721 0.0014385 -7.44982713 -0.83224887 0 0 Z M12 46 C12 83.62 12 121.24 12 160 C21.28580045 155.42952862 21.28580045 155.42952862 30.171875 150.36328125 C31.76189331 149.38838745 31.76189331 149.38838745 33.3840332 148.39379883 C34.49480225 147.70697021 35.60557129 147.0201416 36.75 146.3125 C39.21563972 144.79912305 41.68383725 143.28994531 44.15234375 141.78125 C44.78839035 141.39205887 45.42443695 141.00286774 46.07975769 140.60188293 C52.77450957 136.51254517 59.52142546 132.51249279 66.27355957 128.51885986 C71.56138988 125.39026123 76.84348719 122.25197212 82.12554932 119.11364746 C83.36462521 118.37748847 84.60383995 117.64156313 85.84320068 116.90588379 C89.73566027 114.59441949 93.61981658 112.26954029 97.5 109.9375 C98.96046753 109.07088745 98.96046753 109.07088745 100.45043945 108.18676758 C101.32273193 107.65978271 102.19502441 107.13279785 103.09375 106.58984375 C103.85365234 106.13472412 104.61355469 105.67960449 105.39648438 105.21069336 C105.92564453 104.81116455 106.45480469 104.41163574 107 104 C107 103.34 107 102.68 107 102 C104.67304036 100.36396101 104.67304036 100.36396101 101.640625 98.68359375 C101.07363388 98.3556633 100.50664276 98.02773285 99.92247009 97.68986511 C98.68688582 96.97599955 97.44940174 96.26541479 96.21029663 95.55767822 C92.86153294 93.64408408 89.52728392 91.70547252 86.19140625 89.76953125 C85.50407913 89.3714325 84.81675201 88.97333374 84.1085968 88.56317139 C77.41080932 84.67625107 70.7946649 80.66387902 64.1875 76.625 C54.41266953 70.66287253 44.60892966 64.75205065 34.76797485 58.89959717 C33.35344611 58.0582647 31.93935386 57.21619786 30.52572632 56.37335205 C28.55232888 55.19717831 26.5772285 54.02392069 24.6015625 52.8515625 C23.47057129 52.17947754 22.33958008 51.50739258 21.17431641 50.81494141 C18.17609997 49.1006866 15.08907382 47.54453691 12 46 Z " fill="#000000" transform="translate(356,279)"/>
<path d="M0 0 C1.05853322 -0.00538554 2.11706643 -0.01077108 3.20767641 -0.01631981 C6.75441394 -0.03062661 10.30077969 -0.02348877 13.84753418 -0.01637268 C16.39037883 -0.02207476 18.93322092 -0.02903838 21.47605896 -0.03717041 C27.66561271 -0.05326791 33.85502916 -0.05519912 40.04459751 -0.04995751 C45.07540153 -0.04591447 50.10617556 -0.04736094 55.13697815 -0.05270576 C55.85325143 -0.05345419 56.56952472 -0.05420261 57.30750325 -0.05497371 C58.76264267 -0.0565052 60.21778208 -0.05804355 61.67292148 -0.05958868 C75.31467373 -0.07331241 88.95636861 -0.06787666 102.59811956 -0.05640347 C115.07737106 -0.04646857 127.55647436 -0.05941635 140.035703 -0.08333766 C152.85253801 -0.10772088 165.66930397 -0.11733861 178.48616171 -0.11068493 C185.68064275 -0.10719131 192.87500976 -0.10943427 200.06947327 -0.12693596 C206.83287138 -0.14318514 213.59594074 -0.13848854 220.35934639 -0.11963081 C222.84339403 -0.11593536 225.32746254 -0.11908106 227.81149101 -0.1295166 C231.19879454 -0.14266195 234.58514982 -0.13123523 237.97241211 -0.11352539 C239.45169087 -0.1279329 239.45169087 -0.1279329 240.96085405 -0.14263147 C246.65140462 -0.08128929 249.99425179 0.54328931 254.48620605 4.38768005 C258.76754172 9.13186282 259.85506304 12.78661907 259.7635498 19.0400238 C259.29158207 23.03513101 257.9017372 25.14578299 255.48620605 28.38768005 C251.11489872 31.77767349 247.67217707 33.51017161 242.15418625 33.51910782 C241.26426412 33.52294896 240.374342 33.52679011 239.45745254 33.53074765 C238.47877408 33.52988117 237.50009563 33.52901469 236.49176025 33.52812195 C235.45283009 33.53109307 234.41389992 33.53406419 233.34348702 33.53712535 C229.84515354 33.54583083 226.34685421 33.54732216 222.84851074 33.54881287 C220.34714179 33.55343974 217.84577354 33.55846422 215.34440613 33.56385803 C208.53647834 33.57699679 201.72856396 33.58346646 194.92062664 33.58786869 C190.66966057 33.59063101 186.41869677 33.59486837 182.16773224 33.59937286 C170.39811725 33.61156617 158.62850408 33.6218651 146.8588829 33.62524796 C146.10550833 33.62546752 145.35213376 33.62568709 144.57592966 33.62591331 C143.44316082 33.62624072 143.44316082 33.62624072 142.28750777 33.62657475 C140.75722361 33.62701822 139.22693944 33.62746478 137.69665527 33.62791443 C136.55804414 33.62824657 136.55804414 33.62824657 135.39643076 33.62858543 C123.09875647 33.63253281 110.80114146 33.64998471 98.50349006 33.67327395 C85.87773037 33.69699154 73.25200041 33.70945 60.62621808 33.71061587 C53.53730622 33.71153245 46.44847158 33.71728024 39.35958099 33.73543549 C32.6914874 33.7524528 26.02356536 33.75408604 19.35544777 33.74529648 C16.90729442 33.74452451 14.45913328 33.74888974 12.01099968 33.75875473 C8.67001963 33.77142848 5.32956262 33.76562186 1.98858643 33.75517273 C1.01883086 33.76322913 0.04907529 33.77128554 -0.9500668 33.77958608 C-7.16623928 33.73408881 -12.40052625 33.13098545 -17.25598145 28.8525238 C-21.87320312 22.62723527 -22.38361109 18.11719149 -21.51379395 10.38768005 C-19.88003687 6.3455397 -17.71080147 4.15219065 -14.0659256 1.82426357 C-9.28251944 -0.11028253 -5.11222262 -0.03115507 0 0 Z " fill="#000000" transform="translate(21.5137939453125,297.61231994628906)"/>
<path d="M0 0 C1.32873305 -0.00576172 1.32873305 -0.00576172 2.68430918 -0.01163983 C4.14546726 -0.01034011 4.14546726 -0.01034011 5.63614368 -0.00901413 C7.18735526 -0.01347081 7.18735526 -0.01347081 8.76990443 -0.01801753 C12.25208444 -0.02672292 15.73423014 -0.02821434 19.21642017 -0.02970505 C21.70631452 -0.03433195 24.19620816 -0.03935644 26.68610096 -0.04475021 C33.46310515 -0.05788931 40.24009586 -0.06435883 47.01710963 -0.06876087 C51.24932242 -0.07152338 55.48153292 -0.0757608 59.71374416 -0.08026505 C71.43274479 -0.09245889 83.15174359 -0.1027574 94.87075043 -0.10614014 C95.99598352 -0.10646949 95.99598352 -0.10646949 97.1439486 -0.10680549 C97.89589742 -0.10702377 98.64784623 -0.10724204 99.42258137 -0.10746694 C100.94630889 -0.1079104 102.47003641 -0.10835696 103.99376392 -0.10880661 C105.12749567 -0.10913875 105.12749567 -0.10913875 106.28413109 -0.10947761 C118.52616448 -0.11342407 130.76813828 -0.13087294 143.01014867 -0.15416613 C155.58054259 -0.1778909 168.15090664 -0.19034253 180.72132331 -0.19150805 C187.77840914 -0.19242428 194.83541737 -0.19816311 201.8924818 -0.21632767 C208.53183438 -0.23335679 215.17106579 -0.23497281 221.81044292 -0.22618866 C224.24688835 -0.22541726 226.68334164 -0.22977444 229.11976719 -0.23964691 C232.44726057 -0.25233877 235.77423015 -0.24650411 239.10171986 -0.23606491 C240.06467163 -0.24412132 241.02762341 -0.25217772 242.01975554 -0.26047826 C247.92329453 -0.21719747 252.3156312 0.62175007 257.68639088 3.13142776 C261.51527916 7.06107626 263.96967979 10.95632079 263.99889088 16.50642776 C263.86219511 21.41139352 262.81997288 25.03198307 259.22154713 28.57283401 C255.49724521 31.76899532 253.25262938 33.25458743 248.41494942 33.26564884 C247.51308476 33.27010669 246.6112201 33.27456453 245.68202621 33.27915746 C244.18629358 33.27888092 244.18629358 33.27888092 242.66034412 33.27859879 C241.60593417 33.28227547 240.55152422 33.28595216 239.46516246 33.28974026 C235.90844796 33.30081191 232.35176264 33.30462684 228.79503345 33.30842972 C226.25440343 33.31469175 223.71377433 33.32133831 221.17314625 33.32834244 C213.53131592 33.34759641 205.88949071 33.35817494 198.24764231 33.36707023 C194.64978275 33.37145196 191.05192467 33.37681911 187.45406628 33.3820591 C175.49491176 33.39907338 163.53575816 33.41356735 151.5765934 33.42080784 C148.47216065 33.42271777 145.3677279 33.42463809 142.26329517 33.42659378 C141.49169312 33.42707752 140.72009107 33.42756126 139.92510714 33.42805966 C127.4268885 33.43635915 114.9287656 33.46169378 102.43058876 33.49417446 C89.60145893 33.52724358 76.77237774 33.54525651 63.94320506 33.54845208 C56.7391146 33.55061746 49.5351637 33.55936991 42.33111477 33.58491325 C35.55383845 33.60888766 28.77685675 33.61244686 21.99953175 33.60215187 C19.51106081 33.6016552 17.02257771 33.60801393 14.5341444 33.62170792 C11.13824509 33.639351 7.74325517 33.63235709 4.34735584 33.61917496 C3.36135436 33.6301442 2.37535288 33.64111345 1.35947257 33.6524151 C-4.74124744 33.59519635 -8.31590026 32.68931109 -13.31360912 29.13142776 C-16.99993796 25.35057768 -17.61722292 22.25013908 -17.81360912 17.13142776 C-17.6236137 12.01421783 -16.94194576 8.95072949 -13.31360912 5.13142776 C-8.90409434 1.80179415 -5.52310291 0.00898628 0 0 Z " fill="#000000" transform="translate(17.31360912322998,432.8685722351074)"/>
</svg>
