<?xml version="1.0" encoding="UTF-8"?>
<svg version="1.1" xmlns="http://www.w3.org/2000/svg" width="512" height="512">
<path d="M0 0 C1.36982277 -0.01469078 1.36982277 -0.01469078 2.76731873 -0.02967834 C22.92090277 -0.20124682 42.4421364 -0.05971477 62.2265625 4.23828125 C63.76812012 4.56771729 63.76812012 4.56771729 65.34082031 4.90380859 C122.81045136 17.51713395 177.6063785 49.96919222 212.2265625 98.23828125 C213.38478516 99.8315625 213.38478516 99.8315625 214.56640625 101.45703125 C223.72105994 114.35179132 231.55600049 127.90843756 238.2265625 142.23828125 C238.72736328 143.31239258 238.72736328 143.31239258 239.23828125 144.40820312 C248.11951693 163.75296361 253.76699034 184.2643431 257.2265625 205.23828125 C257.34370605 205.90762695 257.46084961 206.57697266 257.58154297 207.26660156 C263.34680781 241.44699788 261.73324514 286.87005507 246.2265625 318.23828125 C242.01681029 323.55586299 236.91333635 326.58557774 230.20703125 327.51953125 C223.68656006 327.97630682 218.544055 325.95959799 213.2265625 322.23828125 C207.77158618 316.53364926 206.94649758 311.16706114 207.01269531 303.57714844 C207.35984096 298.15755498 208.70023326 293.09298836 210.1015625 287.86328125 C210.65910178 285.64947949 211.21253176 283.43463851 211.76171875 281.21875 C212.02098145 280.17509277 212.28024414 279.13143555 212.54736328 278.05615234 C222.227763 237.89397637 214.12917602 192.89954131 196.2265625 156.23828125 C195.88254395 155.52575195 195.53852539 154.81322266 195.18408203 154.07910156 C189.61112953 142.66299281 182.84596029 132.38665914 175.2265625 122.23828125 C174.53433594 121.29984375 173.84210938 120.36140625 173.12890625 119.39453125 C162.25806283 105.38994569 148.84714313 92.25737273 134.2265625 82.23828125 C133.59073242 81.80112793 132.95490234 81.36397461 132.29980469 80.91357422 C85.49757171 48.99485268 29.52532695 36.67289843 -26.3359375 46.92578125 C-71.96082969 55.88196998 -117.3294863 80.92868293 -145.7734375 118.23828125 C-146.98580078 119.74455078 -146.98580078 119.74455078 -148.22265625 121.28125 C-179.59665378 160.461074 -193.82547633 211.93683778 -189.0859375 261.67578125 C-185.60200662 292.71354519 -175.30316745 323.29295039 -157.7734375 349.23828125 C-157.38687988 349.81126953 -157.00032227 350.38425781 -156.60205078 350.97460938 C-151.77386459 358.07612242 -146.70976855 364.73105529 -140.83984375 371.01953125 C-138.99411066 373.00133918 -137.25733076 375.03431341 -135.5234375 377.11328125 C-100.84033679 416.53666907 -47.97608234 436.25512927 3.2265625 440.23828125 C53.2163973 443.16331533 104.7375331 426.13498677 143.2265625 394.23828125 C145.00759094 392.62446174 146.77908548 391.00003309 148.5390625 389.36328125 C155.53229339 383.02110556 160.72876279 380.4455143 170.34765625 380.87890625 C178.25541889 381.86603537 182.14985043 385.88401257 187.31005859 391.75561523 C192.13012644 397.23635502 197.25129977 402.39368566 202.4140625 407.55078125 C203.25743164 408.39833984 204.10080078 409.24589844 204.96972656 410.11914062 C205.79053711 410.93833984 206.61134766 411.75753906 207.45703125 412.6015625 C208.18301514 413.32641846 208.90899902 414.05127441 209.65698242 414.7980957 C211.73117571 416.7678403 213.83589683 418.64241978 216.0012207 420.50854492 C220.39996803 424.33313132 224.50505017 428.4071247 228.6015625 432.55078125 C229.75470947 433.70960815 229.75470947 433.70960815 230.93115234 434.8918457 C234.1851608 438.16204161 237.43312516 441.43821615 240.68164062 444.71386719 C243.06951602 447.1199341 245.46047043 449.52291163 247.8515625 451.92578125 C248.57263184 452.65514893 249.29370117 453.3845166 250.03662109 454.13598633 C254.59689125 458.7179519 259.31993822 463.0311854 264.2265625 467.23828125 C270.91024921 473.23559609 277.26245905 479.51228848 278.8046875 488.671875 C279.13476749 495.64106384 278.47971714 500.93301665 274.04296875 506.4609375 C268.21584441 512.16274734 262.54948898 512.6905295 254.5703125 512.76953125 C245.95518085 511.40077202 240.68696997 506.24661996 234.8515625 500.21875 C234.08279785 499.44195389 233.3140332 498.66515778 232.52197266 497.86482239 C230.08046614 495.39448565 227.65302994 492.91088349 225.2265625 490.42578125 C222.79756313 487.95402802 220.36566704 485.48519607 217.93115234 483.01887512 C216.4224854 481.48881418 214.91736313 479.95524665 213.41650391 478.41752625 C209.48921791 474.41678592 205.45798283 470.64648949 201.20947266 466.99040222 C197.73555045 463.92080679 194.49100767 460.62514039 191.2265625 457.3359375 C190.14483765 456.25209023 190.14483765 456.25209023 189.04125977 455.14634705 C186.76730835 452.86685521 184.49688296 450.58388885 182.2265625 448.30078125 C180.67341015 446.74260619 179.12002683 445.18466132 177.56640625 443.62695312 C173.78378664 439.83338366 170.0040456 436.0369651 166.2265625 432.23828125 C162.4275784 433.68902471 159.57872174 435.31255099 156.3515625 437.80078125 C144.78497621 446.36346159 132.21764591 453.10855115 119.2265625 459.23828125 C118.59169922 459.53976074 117.95683594 459.84124023 117.30273438 460.15185547 C71.73429287 481.56902298 18.76282341 487.8506802 -30.7734375 479.23828125 C-31.711875 479.07730957 -32.6503125 478.91633789 -33.6171875 478.75048828 C-92.40606767 468.24237972 -150.3331068 434.62875043 -185.59082031 385.86962891 C-186.79474267 384.20889208 -188.027609 382.57293359 -189.265625 380.9375 C-204.74340687 360.21719508 -215.998584 336.83454647 -223.7734375 312.23828125 C-224.01046387 311.49255859 -224.24749023 310.74683594 -224.49169922 309.97851562 C-230.21176912 291.63836287 -233.83139237 272.13915454 -234.01171875 252.90234375 C-234.02640953 251.59917709 -234.02640953 251.59917709 -234.04139709 250.26968384 C-234.47879622 201.36971379 -224.85136875 153.343127 -196.7734375 112.23828125 C-196.33563965 111.58988281 -195.8978418 110.94148438 -195.44677734 110.2734375 C-188.77164262 100.42450776 -181.67991008 91.12555676 -173.7734375 82.23828125 C-173.33177246 81.73490234 -172.89010742 81.23152344 -172.43505859 80.71289062 C-130.16357446 32.62309707 -64.37220064 0.57244584 0 0 Z " fill="#000000" transform="translate(233.7734375,-0.23828125)"/>
</svg>
